<?xml version="1.0" encoding="utf-8"?>
<!-- Generator: Adobe Illustrator 17.1.0, SVG Export Plug-In . SVG Version: 6.00 Build 0)  -->
<!DOCTYPE svg PUBLIC "-//W3C//DTD SVG 1.1//EN" "http://www.w3.org/Graphics/SVG/1.1/DTD/svg11.dtd">
<svg version="1.1" id="Layer_1" xmlns="http://www.w3.org/2000/svg" xmlns:xlink="http://www.w3.org/1999/xlink" x="0px" y="0px"
	 viewBox="0 0 640 640" enable-background="new 0 0 640 640" xml:space="preserve">
<g>
	<g>
		<path fill="#1A2936" d="M152.8,271.3v14.1h-8.7v-39.2h14.8c8,0,13.4,5.2,13.4,12.5c0,7.4-5.5,12.5-13.4,12.5H152.8z M157.9,263.8
			c3.3,0,5.6-1.9,5.6-5c0-3.1-2.3-5-5.6-5h-5.1v10H157.9z"/>
		<path fill="#1A2936" d="M186.5,285.4v-39.2h24.8v8.2h-16.1v7.5h14.6v7.7h-14.6v7.5h16.1v8.3H186.5z"/>
		<path fill="#1A2936" d="M227.5,285.4v-39.2h14.2c11.8,0,19.7,7.5,19.7,19.6c0,12.1-7.9,19.6-19.7,19.6H227.5z M241.3,277.2
			c6,0,10.9-3.5,10.9-11.3c0-7.8-4.9-11.4-10.9-11.4h-5.1v22.7H241.3z"/>
		<path fill="#1A2936" d="M276.4,285.4v-39.2h8.8v39.2H276.4z"/>
		<path fill="#1A2936" d="M326,277.5h-15.1l-2.8,8h-9.2l14.8-39.2h10.1l14.6,39.2h-9.5L326,277.5z M313.7,269.5h9.5l-4.7-13.5
			L313.7,269.5z"/>
		<path fill="#1A2936" d="M365.9,254.6v30.8h-8.7v-30.8h-12v-8.3H378v8.3H365.9z"/>
		<path fill="#1A2936" d="M404,270.8h-3.1v14.6h-8.7v-39.2h15.5c7.7,0,12.7,5.3,12.7,12.3c0,5.3-2.9,9.3-7.7,11.1l8,15.9H411
			L404,270.8z M406,263.3c3.6,0,5.5-2,5.5-4.8c0-2.9-1.9-4.8-5.5-4.8h-5.1v9.5H406z"/>
		<path fill="#1A2936" d="M435.7,285.4v-39.2h8.8v39.2H435.7z"/>
		<path fill="#1A2936" d="M459.5,265.9c0-12.2,9.3-20.5,20.2-20.5c11.8,0,17,7.6,18.2,13.2l-8.2,2.6c-0.6-2.7-3.1-7.3-10-7.3
			c-5.2,0-11.2,3.8-11.2,12c0,7.3,5.4,11.6,11.3,11.6c6.8,0,9.5-4.5,10.3-7.3l8.3,2.4c-1.3,5.4-6.5,13.7-18.6,13.7
			C468.6,286.3,459.5,278.1,459.5,265.9z"/>
		<path fill="#1A2936" d="M167.4,387.8v25.8h38.3V435h-38.3v34.7h52.5V491h-76.5V366.4h74.8v21.4H167.4z"/>
		<path fill="#1A2936" d="M333.8,434.6V491h-24v-56.4l-42.7-68.2h27.4l27.4,43.8l27.2-43.8h27.4L333.8,434.6z"/>
		<path fill="#1A2936" d="M451.2,387.8v25.8h38.3V435h-38.3v34.7h52.5V491h-76.5V366.4H502v21.4H451.2z"/>
		<path fill="#1A2936" d="M308,601.5v-26l-10.2,26h-7.1l-10.2-25.6v25.6h-8.3v-39.2h11.4l10.8,26.5l10.2-26.5h12v39.2H308z"/>
		<path fill="#1A2936" d="M336.1,601.5v-39.2h14.2c11.8,0,19.7,7.5,19.7,19.6s-7.9,19.6-19.7,19.6H336.1z M350,593.2
			c6,0,10.9-3.5,10.9-11.3c0-7.8-4.9-11.4-10.9-11.4h-5.1v22.7H350z"/>
	</g>
	<g>
		<path fill="#D9E3E8" d="M488.5,140.7c-39.2-40.4-93.8-86.9-168.4-86.9c-72.1,0-126,43.8-164.9,82l-7.8,7.9l4.4,4.7
			c6.2-5,75.7-72.7,168.2-72.7c92.4,0,166.4,72.7,171.8,77.3l4.4-4.3L488.5,140.7z"/>
	</g>
</g>
</svg>
